<svg xmlns="http://www.w3.org/2000/svg" xmlns:xlink="http://www.w3.org/1999/xlink" width="228.502" height="64.246" viewBox="0 0 228.502 64.246"><defs><style>.a{fill:url(#a);}.b{fill:#fff;}.c{fill:#93dc25;}</style><linearGradient id="a" x1="0.931" y1="0.245" x2="0.032" y2="0.722" gradientUnits="objectBoundingBox"><stop offset="0.03" stop-color="#93dc25"/><stop offset="0.92" stop-color="#009ee2"/></linearGradient></defs><g transform="translate(-0.715 -0.575)"><path class="a" d="M22.275,64.817a19.448,19.448,0,0,1-6.793-1.077A11.3,11.3,0,0,1,9.5,58.846,15.37,15.37,0,0,1,7.59,51.3,31.9,31.9,0,0,1,.879,34.41c-.97-8.651,2.384-17.563,9.428-25.1a.386.386,0,0,1,.063-.058C21.449-1.147,30.527.38,33.05,1.093,39.29,2.867,42.819,6.6,43.529,12.25a17.916,17.916,0,0,1,.139,2.6A33.615,33.615,0,0,1,58.1,21.426,3.1,3.1,0,0,1,59.3,25.566c-2.159,4.265-14.645,8.018-19.017,6.5a2.99,2.99,0,0,1-2.164-3.592c.211-1.033.557-2.267.925-3.592a54.537,54.537,0,0,0,1.706-7.668,20.737,20.737,0,0,0-7.83.9C26.76,20.07,21.369,24.282,16.9,30.6h0c-2.963,4.193-6.505,12.651-6.64,19.709a20.7,20.7,0,0,0,15.278,7.026,42.676,42.676,0,0,0,16.84-3.3l1.1-.413a1.347,1.347,0,0,1,1.347.242,1.414,1.414,0,0,1,.323.409,1.369,1.369,0,0,1,.04,1.347,1.315,1.315,0,0,1-.346.368c-1.347,1.4-7.659,7.34-18.856,8.6a32.43,32.43,0,0,1-3.708.229ZM10.634,54.41a10.73,10.73,0,0,0,1.185,3.066c2.209,3.735,6.864,5.235,13.837,4.445a31.336,31.336,0,0,0,10.68-3.143,41.648,41.648,0,0,1-10.86,1.248A23.251,23.251,0,0,1,10.634,54.41Zm1.625-43.225c-3.785,4.036-9.89,12.355-8.723,22.923a30.882,30.882,0,0,0,4.287,12.97,45.065,45.065,0,0,1,6.855-18.034C19.514,22.234,25.373,17.7,32.107,15.554a23.651,23.651,0,0,1,8.844-1.037c.027-4.938-2-8.947-8.638-10.833C30.141,3.069,22.28,1.789,12.259,11.186Zm31.206,6.4a56.338,56.338,0,0,1-1.823,8.045c-.373,1.311-.691,2.442-.9,3.381-.054.256-.072.346.409.512,3.439,1.194,14.317-2.379,15.713-5.172.1-.2.18-.35-.382-.741-.031,0-.067-.049-.1-.072a31.83,31.83,0,0,0-12.921-5.953Z" transform="translate(0 0)"/><path class="b" d="M176.863,48.7v3.547h-6.95a5.382,5.382,0,0,0-4.283,1.544q-1.338,1.544-1.347,5.064,0,3.479,1.32,5.028a5.411,5.411,0,0,0,4.31,1.562h6.95v3.542h-6.95q-4.445,0-6.8-2.505t-2.361-7.632q0-5.136,2.361-7.632t6.8-2.51Z" transform="translate(-88.188 -26.52)"/><path class="b" d="M213.572,58.54a6.6,6.6,0,0,1,5.015,1.966c1.244,1.311,1.612,3.3,1.612,5.962s-.368,4.678-1.612,5.975a6.617,6.617,0,0,1-5.015,1.953h-2.95a6.6,6.6,0,0,1-5.033-1.953c-1.23-1.3-1.589-3.291-1.589-5.975s.364-4.674,1.594-5.975a6.594,6.594,0,0,1,5.033-1.953ZM210.923,61.6a3.7,3.7,0,0,0-3.021,1.145c-.629.759-.691,2-.691,3.722s.063,2.959.691,3.708a3.74,3.74,0,0,0,3.021,1.14h2.348a3.726,3.726,0,0,0,3.021-1.127c.633-.754.691-1.984.691-3.708s-.063-2.963-.691-3.722a3.713,3.713,0,0,0-3.021-1.145Z" transform="translate(-112.021 -31.942)"/><path class="b" d="M265.549,58.515q4.04,0,6.034,1.818a6.556,6.556,0,0,1,1.984,5.122v8.916h-3.214V65.456a3.623,3.623,0,0,0-1.127-2.882,5.487,5.487,0,0,0-3.65-.992h-3.084V74.377h-3.215v-12.8h-7.183c-.26,0-.391.153-.391.449V74.372H248.52V60.967a2.786,2.786,0,0,1,.512-1.935,2.321,2.321,0,0,1,1.71-.525Z" transform="translate(-136.554 -31.917)"/><path class="b" d="M323.3,58.54a6.555,6.555,0,0,1,5,1.966c1.23,1.311,1.594,3.3,1.594,5.962s-.364,4.678-1.594,5.975a6.572,6.572,0,0,1-5,1.953h-6.155v6.371H314V65.328a7.58,7.58,0,0,1,1.473-5.122,5.487,5.487,0,0,1,4.355-1.666Zm-6.155,12.777h5.836A3.726,3.726,0,0,0,326,70.19c.633-.754.691-1.984.691-3.708s-.063-2.963-.691-3.722a3.713,3.713,0,0,0-3.021-1.145h-2.245a3.578,3.578,0,0,0-2.761.9,4.47,4.47,0,0,0-.831,2.968Z" transform="translate(-172.637 -31.942)"/><path class="b" d="M360.928,58.54v9.491a3.044,3.044,0,0,0,1.006,2.343,4.079,4.079,0,0,0,2.9.943h1.693a4.072,4.072,0,0,0,2.887-.929,3.075,3.075,0,0,0,.988-2.343v-9.5h3.143v9.634a7,7,0,0,1-.449,2.523,5.32,5.32,0,0,1-1.311,1.966,6.1,6.1,0,0,1-2.146,1.293,8.755,8.755,0,0,1-2.99.449h-2.052a8.755,8.755,0,0,1-2.99-.449,6.1,6.1,0,0,1-2.146-1.293,5.213,5.213,0,0,1-1.306-1.966,7,7,0,0,1-.449-2.523V58.54Z" transform="translate(-196.718 -31.942)"/><path class="b" d="M439.4,58.54a6.6,6.6,0,0,1,5.015,1.966c1.239,1.311,1.607,3.3,1.607,5.962s-.368,4.678-1.607,5.975A6.616,6.616,0,0,1,439.4,74.4h-2.954a6.577,6.577,0,0,1-5.028-1.953c-1.235-1.3-1.594-3.291-1.594-5.975s.359-4.674,1.594-5.975a6.59,6.59,0,0,1,5.028-1.953ZM436.743,61.6a3.689,3.689,0,0,0-3.017,1.145c-.633.759-.682,2-.682,3.722s.058,2.959.691,3.708a3.716,3.716,0,0,0,3.008,1.14H439.1a3.71,3.71,0,0,0,3.017-1.127c.629-.754.691-1.984.691-3.708s-.058-2.963-.691-3.722a3.709,3.709,0,0,0-3.017-1.145Z" transform="translate(-236.46 -31.942)"/><path class="b" d="M483.571,58.54a6.555,6.555,0,0,1,5,1.966c1.235,1.311,1.594,3.3,1.594,5.962s-.359,4.678-1.594,5.975a6.572,6.572,0,0,1-5,1.953h-6.128v6.371H474.26V65.328a7.579,7.579,0,0,1,1.473-5.122,5.487,5.487,0,0,1,4.355-1.666Zm-6.128,12.777h5.809a3.71,3.71,0,0,0,3.017-1.127c.629-.754.691-1.984.691-3.708s-.058-2.963-.691-3.722a3.709,3.709,0,0,0-3.017-1.145h-2.245a3.59,3.59,0,0,0-2.761.9,4.406,4.406,0,0,0-.813,2.972Z" transform="translate(-260.949 -31.942)"/><path class="b" d="M408.733,66.852a2.164,2.164,0,0,1-2.141-2.141V56.984H411V53.918h-4.4V50.16H403.4V64.71a5.01,5.01,0,0,0,5.078,5.078h5.262V66.852Z" transform="translate(-221.901 -27.324)"/><path class="c" d="M162.059,116.184h2.792v1.109h-2.792v3.381a4.04,4.04,0,0,0,.085.9,1.275,1.275,0,0,0,.256.566.9.9,0,0,0,.422.292,1.863,1.863,0,0,0,.6.085,2.774,2.774,0,0,0,.956-.135l.507-.193.251,1.1a5.292,5.292,0,0,1-.691.247,3.982,3.982,0,0,1-1.136.148,3.394,3.394,0,0,1-1.244-.193,1.8,1.8,0,0,1-.786-.575,2.272,2.272,0,0,1-.418-.943,6.161,6.161,0,0,1-.121-1.3v-6.555l1.32-.224Z" transform="translate(-88.182 -62.443)"/><path class="c" d="M174.83,121.9V111.124l1.32-.224v3.771a4.691,4.691,0,0,1,.786-.22,4.364,4.364,0,0,1,.831-.076,3.744,3.744,0,0,1,1.464.247,2.245,2.245,0,0,1,.925.7,2.658,2.658,0,0,1,.489,1.068,6.246,6.246,0,0,1,.144,1.378V121.9h-1.32v-3.856a6.581,6.581,0,0,0-.09-1.163,2.016,2.016,0,0,0-.305-.781,1.221,1.221,0,0,0-.57-.449,2.474,2.474,0,0,0-.875-.135,3.674,3.674,0,0,0-.449.027l-.449.063a3.251,3.251,0,0,0-.368.081,2.155,2.155,0,0,0-.233.067V121.9Z" transform="translate(-95.947 -60.795)"/><path class="c" d="M193.159,122.441a4.741,4.741,0,0,1,.283-1.71,3.632,3.632,0,0,1,.75-1.212,3.143,3.143,0,0,1,1.077-.723,3.372,3.372,0,0,1,1.248-.242,2.837,2.837,0,0,1,2.285.929,4.278,4.278,0,0,1,.795,2.833v.22a2.1,2.1,0,0,1,0,.247h-5.064a2.694,2.694,0,0,0,.669,1.742,2.424,2.424,0,0,0,1.8.6,4.844,4.844,0,0,0,1.172-.121,4.27,4.27,0,0,0,.714-.233l.184,1.109a3.87,3.87,0,0,1-.844.269,6.007,6.007,0,0,1-1.347.139,4.265,4.265,0,0,1-1.666-.292,3.071,3.071,0,0,1-1.154-.8,3.205,3.205,0,0,1-.673-1.212A5.087,5.087,0,0,1,193.159,122.441Zm5.06-.723a2.2,2.2,0,0,0-.449-1.468,1.544,1.544,0,0,0-1.271-.575,1.746,1.746,0,0,0-.8.175,1.881,1.881,0,0,0-.588.449,2.132,2.132,0,0,0-.377.651,3.417,3.417,0,0,0-.18.754Z" transform="translate(-106.047 -65.009)"/><path class="c" d="M227.926,122.486a5.136,5.136,0,0,1-.22,1.544,3.444,3.444,0,0,1-.642,1.221,2.949,2.949,0,0,1-1.046.795,3.722,3.722,0,0,1-2.537.112,3.555,3.555,0,0,1-.732-.323v2.95h-1.32v-9.774c.314-.076.7-.157,1.172-.247a8.7,8.7,0,0,1,1.625-.135,4.135,4.135,0,0,1,1.531.269,3.336,3.336,0,0,1,1.163.763,3.385,3.385,0,0,1,.745,1.212A4.669,4.669,0,0,1,227.926,122.486Zm-1.374,0a2.819,2.819,0,0,0-.637-1.984,2.186,2.186,0,0,0-1.7-.7,8.15,8.15,0,0,0-.929.04,4.68,4.68,0,0,0-.534.1V124.6a2.787,2.787,0,0,0,.7.382,2.635,2.635,0,0,0,.992.184,2.11,2.11,0,0,0,.974-.207,1.706,1.706,0,0,0,.655-.566,2.415,2.415,0,0,0,.373-.853A4.61,4.61,0,0,0,226.552,122.486Z" transform="translate(-121.626 -65.054)"/><path class="c" d="M242.978,118.559a3.888,3.888,0,0,1,1.347.207,2.088,2.088,0,0,1,1.347,1.477,4.31,4.31,0,0,1,.144,1.14v4.611l-.476.076c-.2.036-.449.063-.687.094s-.534.054-.831.076-.593.036-.9.036a4.849,4.849,0,0,1-1.149-.126,2.6,2.6,0,0,1-.9-.4,1.9,1.9,0,0,1-.593-.732,2.541,2.541,0,0,1-.215-1.091,2.092,2.092,0,0,1,.251-1.051,1.89,1.89,0,0,1,.673-.709,3.143,3.143,0,0,1,.992-.4,5.387,5.387,0,0,1,1.19-.126,3.272,3.272,0,0,1,.413,0,1.5,1.5,0,0,1,.4.054l.332.063.2.045v-.35a3.1,3.1,0,0,0-.067-.646,1.545,1.545,0,0,0-.256-.566,1.32,1.32,0,0,0-.5-.4,1.993,1.993,0,0,0-.831-.148,6.137,6.137,0,0,0-1.145.094,3.741,3.741,0,0,0-.727.189l-.157-1.091a4.067,4.067,0,0,1,.853-.22A7.224,7.224,0,0,1,242.978,118.559Zm.112,6.613h.831a3.2,3.2,0,0,0,.6-.081v-2.2a1.544,1.544,0,0,0-.449-.121,5.388,5.388,0,0,0-.772-.049,5.215,5.215,0,0,0-.633.04,2.016,2.016,0,0,0-.611.18,1.347,1.347,0,0,0-.449.368.983.983,0,0,0-.184.615,1.064,1.064,0,0,0,.449.988A2.37,2.37,0,0,0,243.09,125.172Z" transform="translate(-131.897 -65.015)"/><path class="c" d="M256.221,127.746a3.522,3.522,0,0,0,.4.135,2.091,2.091,0,0,0,.489.063,1.935,1.935,0,0,0,1.221-.346,3.048,3.048,0,0,0,.795-1.131,39.45,39.45,0,0,1-1.666-3.592,31.2,31.2,0,0,1-1.284-3.865H257.6c.1.449.229.9.377,1.378s.31,1,.489,1.517.373,1.042.579,1.558.426,1.024.651,1.5c.364-.992.673-1.975.938-2.95s.516-1.975.754-3.008h1.347q-.512,2.088-1.136,4.009t-1.347,3.592a7.732,7.732,0,0,1-.588,1.1,3.592,3.592,0,0,1-.673.759,2.505,2.505,0,0,1-.831.449,3.564,3.564,0,0,1-1.042.139,2.721,2.721,0,0,1-.328,0l-.332-.058a1.02,1.02,0,0,1-.3-.076l-.189-.072Z" transform="translate(-140.659 -65.264)"/><path class="c" d="M275.338,119q.449-.117,1.2-.242a10.324,10.324,0,0,1,1.724-.126,3.3,3.3,0,0,1,1.194.189,2.146,2.146,0,0,1,.808.561c.063-.045.171-.112.31-.2a3.216,3.216,0,0,1,.525-.247,5.568,5.568,0,0,1,.7-.216,3.438,3.438,0,0,1,.822-.09,3.331,3.331,0,0,1,1.392.247,2,2,0,0,1,.844.7,2.8,2.8,0,0,1,.413,1.077,8.568,8.568,0,0,1,.1,1.347v4.139h-1.32v-3.856a8.111,8.111,0,0,0-.063-1.122,2.056,2.056,0,0,0-.242-.777,1.087,1.087,0,0,0-.48-.449,1.8,1.8,0,0,0-.786-.148,2.954,2.954,0,0,0-1.1.175,2.177,2.177,0,0,0-.588.319,5.685,5.685,0,0,1,.171.808,7.64,7.64,0,0,1,.054.925v4.139h-1.32v-3.856a8.052,8.052,0,0,0-.067-1.122,2.245,2.245,0,0,0-.251-.777,1.087,1.087,0,0,0-.48-.449,1.769,1.769,0,0,0-.772-.148h-.426l-.449.036a2.262,2.262,0,0,0-.377.049l-.229.04v6.231h-1.32Z" transform="translate(-151.322 -65.052)"/><path class="c" d="M302.849,122.441a4.741,4.741,0,0,1,.283-1.71,3.637,3.637,0,0,1,.754-1.212,3.057,3.057,0,0,1,1.077-.723,3.354,3.354,0,0,1,1.248-.242,2.842,2.842,0,0,1,2.285.929,4.278,4.278,0,0,1,.795,2.833v.22a2.045,2.045,0,0,1,0,.247h-5.064a2.694,2.694,0,0,0,.664,1.742,2.438,2.438,0,0,0,1.818.6,4.775,4.775,0,0,0,1.167-.121,4.206,4.206,0,0,0,.718-.233l.184,1.109a3.959,3.959,0,0,1-.844.269,6.034,6.034,0,0,1-1.369.139,4.265,4.265,0,0,1-1.666-.292,3.089,3.089,0,0,1-1.158-.8,3.332,3.332,0,0,1-.673-1.212A5.088,5.088,0,0,1,302.849,122.441Zm5.064-.723a2.245,2.245,0,0,0-.449-1.468,1.549,1.549,0,0,0-1.271-.575,1.764,1.764,0,0,0-.8.175,1.988,1.988,0,0,0-.588.449,2.245,2.245,0,0,0-.377.651,3.17,3.17,0,0,0-.175.754Z" transform="translate(-166.492 -65.009)"/><path class="c" d="M322.6,119c.3-.076.7-.157,1.208-.242a10.389,10.389,0,0,1,1.728-.126,3.7,3.7,0,0,1,1.459.247,2.245,2.245,0,0,1,.929.7,2.657,2.657,0,0,1,.489,1.068,6.248,6.248,0,0,1,.144,1.378v4.139h-1.3V122.3a6.581,6.581,0,0,0-.09-1.163,2.015,2.015,0,0,0-.305-.781,1.221,1.221,0,0,0-.57-.449,2.482,2.482,0,0,0-.9-.135h-.449l-.449.036a2.15,2.15,0,0,0-.368.049l-.233.04v6.258h-1.32Z" transform="translate(-177.36 -65.052)"/><path class="c" d="M343.106,116.184h2.8v1.109h-2.8v3.381a4.291,4.291,0,0,0,.085.9,1.383,1.383,0,0,0,.256.566.934.934,0,0,0,.426.292,1.841,1.841,0,0,0,.6.085,2.811,2.811,0,0,0,.956-.135l.5-.193.256,1.1a5.418,5.418,0,0,1-.7.247,3.982,3.982,0,0,1-1.136.148,3.385,3.385,0,0,1-1.239-.193,1.769,1.769,0,0,1-.777-.566,2.245,2.245,0,0,1-.422-.943,6.5,6.5,0,0,1-.117-1.3v-6.564l1.315-.224Z" transform="translate(-187.956 -62.443)"/><path class="c" d="M370.866,122.486a5.285,5.285,0,0,1-.22,1.544,3.529,3.529,0,0,1-.647,1.221,2.932,2.932,0,0,1-1.042.795,3.731,3.731,0,0,1-2.541.112,3.556,3.556,0,0,1-.732-.323v2.95H364.37v-9.774c.31-.076.7-.157,1.167-.247a8.733,8.733,0,0,1,1.625-.135,4.135,4.135,0,0,1,1.531.269,3.3,3.3,0,0,1,1.163.763,3.384,3.384,0,0,1,.745,1.212,4.67,4.67,0,0,1,.265,1.612Zm-1.378,0a2.819,2.819,0,0,0-.638-1.984,2.186,2.186,0,0,0-1.7-.7,8.141,8.141,0,0,0-.929.04,4.675,4.675,0,0,0-.534.1V124.6a2.789,2.789,0,0,0,.7.382,2.653,2.653,0,0,0,.992.184,2.1,2.1,0,0,0,.974-.207,1.751,1.751,0,0,0,.66-.566,2.41,2.41,0,0,0,.368-.853A4.611,4.611,0,0,0,369.488,122.486Z" transform="translate(-200.394 -65.054)"/><path class="c" d="M383.259,122.441a4.741,4.741,0,0,1,.283-1.71,3.592,3.592,0,0,1,.754-1.212,3.058,3.058,0,0,1,1.077-.723,3.336,3.336,0,0,1,1.248-.242,2.833,2.833,0,0,1,2.281.929,4.278,4.278,0,0,1,.795,2.833v.22a2.089,2.089,0,0,1,0,.247h-5.064a2.694,2.694,0,0,0,.669,1.742,2.425,2.425,0,0,0,1.8.6,4.844,4.844,0,0,0,1.172-.121,4.128,4.128,0,0,0,.714-.233l.189,1.109a3.96,3.96,0,0,1-.844.269,6.061,6.061,0,0,1-1.347.139,4.292,4.292,0,0,1-1.67-.292,3.071,3.071,0,0,1-1.154-.8,3.205,3.205,0,0,1-.673-1.212A5.086,5.086,0,0,1,383.259,122.441Zm5.064-.723a2.2,2.2,0,0,0-.449-1.468,1.535,1.535,0,0,0-1.266-.575,1.764,1.764,0,0,0-.8.175,1.935,1.935,0,0,0-.588.449,2.134,2.134,0,0,0-.377.651,3.169,3.169,0,0,0-.175.754Z" transform="translate(-210.802 -65.009)"/><path class="c" d="M409.043,122.434a4.683,4.683,0,0,1-.256,1.589,3.565,3.565,0,0,1-.718,1.217,3.143,3.143,0,0,1-1.1.79,3.672,3.672,0,0,1-2.784,0,3.143,3.143,0,0,1-1.1-.79,3.565,3.565,0,0,1-.718-1.217,5.038,5.038,0,0,1,0-3.17,3.592,3.592,0,0,1,.718-1.23,3.143,3.143,0,0,1,1.1-.786,3.619,3.619,0,0,1,2.783,0,3.143,3.143,0,0,1,1.1.786,3.592,3.592,0,0,1,.718,1.23,4.65,4.65,0,0,1,.256,1.58Zm-1.378,0a3.192,3.192,0,0,0-.557-1.98,1.957,1.957,0,0,0-3.053,0,3.8,3.8,0,0,0,0,3.96,1.966,1.966,0,0,0,3.053,0,3.192,3.192,0,0,0,.557-1.98Z" transform="translate(-221.196 -65.016)"/><path class="c" d="M429.376,122.486a5.137,5.137,0,0,1-.22,1.544,3.529,3.529,0,0,1-.646,1.221,2.891,2.891,0,0,1-1.042.795,3.731,3.731,0,0,1-2.541.112,3.5,3.5,0,0,1-.727-.323v2.95h-1.32v-9.774c.31-.076.7-.157,1.167-.247a8.732,8.732,0,0,1,1.625-.135,4.157,4.157,0,0,1,1.535.269,3.336,3.336,0,0,1,1.163.763,3.439,3.439,0,0,1,.741,1.212A4.669,4.669,0,0,1,429.376,122.486Zm-1.378,0a2.82,2.82,0,0,0-.638-1.984,2.186,2.186,0,0,0-1.7-.7,8.251,8.251,0,0,0-.929.04,4.579,4.579,0,0,0-.53.1V124.6a2.846,2.846,0,0,0,1.688.566,2.087,2.087,0,0,0,.97-.207,1.751,1.751,0,0,0,.66-.566,2.412,2.412,0,0,0,.368-.853A4.608,4.608,0,0,0,428,122.486Z" transform="translate(-232.636 -65.054)"/><path class="c" d="M444.856,122.037a2.528,2.528,0,0,1-1.733-.525,2.065,2.065,0,0,1-.512-1.544v-8.853l1.32-.224v8.862a2.186,2.186,0,0,0,.058.539.714.714,0,0,0,.184.341.812.812,0,0,0,.341.193,3.5,3.5,0,0,0,.525.1Z" transform="translate(-243.505 -60.79)"/><path class="c" d="M451.6,122.441a4.742,4.742,0,0,1,.283-1.71,3.632,3.632,0,0,1,.75-1.212,3.143,3.143,0,0,1,1.077-.723,3.372,3.372,0,0,1,1.248-.242,2.837,2.837,0,0,1,2.285.929,4.278,4.278,0,0,1,.795,2.833v.22a2.083,2.083,0,0,1,0,.247h-5.064a2.694,2.694,0,0,0,.669,1.742,2.424,2.424,0,0,0,1.8.6,4.844,4.844,0,0,0,1.172-.121,4.27,4.27,0,0,0,.714-.233l.184,1.109a3.789,3.789,0,0,1-.844.269,6,6,0,0,1-1.347.139,4.292,4.292,0,0,1-1.67-.292,3.07,3.07,0,0,1-1.154-.8,3.205,3.205,0,0,1-.673-1.212,5.086,5.086,0,0,1-.22-1.54Zm5.064-.723a2.2,2.2,0,0,0-.449-1.468,1.544,1.544,0,0,0-1.271-.575,1.747,1.747,0,0,0-.8.175,1.935,1.935,0,0,0-.588.449,2.133,2.133,0,0,0-.377.651,3.17,3.17,0,0,0-.175.754Z" transform="translate(-248.461 -65.009)"/></g></svg>